<?xml version="1.0" encoding="UTF-8"?>
<svg version="1.1" xmlns="http://www.w3.org/2000/svg" width="512" height="512">
<path d="M0 0 C3 1 3 1 4.14746094 2.73974609 C4.50614258 3.49336426 4.86482422 4.24698242 5.234375 5.0234375 C5.64010742 5.86962646 6.04583984 6.71581543 6.46386719 7.58764648 C7.10050293 8.96738647 7.10050293 8.96738647 7.75 10.375 C8.1924707 11.32383057 8.63494141 12.27266113 9.09082031 13.25024414 C22.31856542 42.06303556 31.03583869 73.94502425 31.203125 105.79296875 C31.21018463 106.69341919 31.21724426 107.59386963 31.22451782 108.52160645 C31.4538424 146.35568106 31.4538424 146.35568106 28 163 C27.69400879 164.49055908 27.69400879 164.49055908 27.38183594 166.01123047 C18.21889168 209.33848583 -0.59490618 248.77490909 -30 282 C-30.77085937 282.88171875 -31.54171875 283.7634375 -32.3359375 284.671875 C-40.88137606 294.32672137 -49.88846275 303.00172054 -60 311 C-61.04804175 311.86056019 -62.09487897 312.72258903 -63.140625 313.5859375 C-86.45500789 332.64066374 -117.14696522 351.05923567 -147 357 C-147.99 356.67 -148.98 356.34 -150 356 C-149.55715605 355.56084322 -149.1143121 355.12168644 -148.65804863 354.66922188 C-137.85400888 343.9537466 -127.06124189 333.22705498 -116.28069878 322.48794746 C-111.06691279 317.29473506 -105.84946442 312.10530714 -100.62304688 306.92480469 C-96.06458229 302.4063679 -91.51333336 297.88080394 -86.97039807 293.34675205 C-84.56751859 290.94906046 -82.16131786 288.55494312 -79.74642563 286.16934586 C-77.04397097 283.49608052 -74.35445011 280.81039934 -71.66748047 278.12158203 C-70.47956657 276.95523979 -70.47956657 276.95523979 -69.26765442 275.76533508 C-59.66037015 266.0866897 -53.01887666 254.2845669 -52.5625 240.375 C-53.15709092 227.15973721 -59.34169868 217.65288872 -66.703125 207.10546875 C-70.91689575 200.26443732 -71.74185155 192.12750337 -70.6015625 184.24609375 C-68.25975517 175.44365326 -63.42292973 169.27077282 -56.92993164 163.09179688 C-47.36351165 153.97687088 -39.8206815 143.75721361 -39 130 C-38.89414061 116.92636513 -42.89909925 106.62630372 -51.7421875 97.12890625 C-60.15360497 89.01415703 -71.16320715 85.59668459 -82.640625 85.72265625 C-96.52094494 86.86858964 -105.58589676 93.40433361 -114.9375 103 C-123.95054332 112.20944767 -131.68226328 117.5085706 -145 118 C-154.54554931 117.32683009 -161.59943531 113.17699925 -169 107.453125 C-178.40610317 100.61900316 -188.59326498 99.12044453 -200 100 C-219.46485816 103.54914793 -232.46727225 120.32226498 -245.74072266 133.62719727 C-247.41683823 135.30359531 -249.09317482 136.9797724 -250.76971436 138.65574646 C-255.29601249 143.18175896 -259.81923164 147.71083706 -264.34188509 152.24049115 C-268.59736835 156.50161037 -272.85517481 160.76040591 -277.11296336 165.0192213 C-285.53934645 173.44778632 -293.96349972 181.87857629 -302.38623047 190.31079102 C-310.56213345 198.49589039 -318.73909901 206.67992586 -326.91748047 214.86254883 C-327.42264248 215.36797356 -327.9278045 215.8733983 -328.44827445 216.39413894 C-330.98284295 218.9300126 -333.5174322 221.46586553 -336.05203176 224.00170815 C-357.03790379 244.99792604 -378.02011131 265.99780338 -399 287 C-400.11468298 286.06316168 -401.22671535 285.12316909 -402.33764648 284.18188477 C-403.26697243 283.39721581 -403.26697243 283.39721581 -404.21507263 282.59669495 C-406.80211572 280.2824727 -408.95652926 277.68173109 -411.0625 274.9375 C-411.74687134 274.05336426 -411.74687134 274.05336426 -412.44506836 273.15136719 C-440.51107107 236.25524199 -459.45863485 193.50404746 -464.72900391 147.22509766 C-464.97084589 145.23937888 -465.29809069 143.26449041 -465.63671875 141.29296875 C-468.03815446 118.28566529 -443.20504765 89.81745554 -429.41796875 72.796875 C-403.58215994 41.34539853 -370.76826297 21.01537399 -329.9375 16.75 C-290.92890038 13.16814867 -252.75656248 22.11477816 -215.06021118 31.08880615 C-154.96454396 45.38452591 -88.04961592 60.30536667 -31.58203125 26.28515625 C-19.8843774 18.95496021 -9.6109198 9.86383874 0 0 Z M-401.25 108.25 C-408.82539182 117.57680553 -410.78955818 128.31746317 -410 140 C-407.96226643 151.72560247 -401.50508483 161.02852861 -392 168 C-389.41077977 169.58465938 -386.82611529 170.89579248 -384 172 C-383.08992188 172.35578125 -382.17984375 172.7115625 -381.2421875 173.078125 C-371.19372407 175.93527846 -360.24961743 174.65670395 -351 170 C-347.67191761 168.11586085 -347.67191761 168.11586085 -345 166 C-343.7934375 165.195625 -343.7934375 165.195625 -342.5625 164.375 C-336.17643917 158.45621191 -332.10145559 151.40582236 -330 143 C-329.773125 142.154375 -329.54625 141.30875 -329.3125 140.4375 C-327.85256177 129.04998182 -330.55201212 118.91331227 -337.05859375 109.47265625 C-343.44463223 101.33913038 -351.28621002 97.23792999 -361 94 C-377.55807296 92.91159219 -389.51854913 95.80212465 -401.25 108.25 Z " fill="#000000" transform="translate(473,138)"/>
<path d="M0 0 C6.50201474 3.84062435 11.77315048 9.44488591 14.0625 16.7421875 C15.73952401 25.39682925 14.90078321 33.32148212 10.5 41 C7.73034888 44.84959466 4.44856912 48.08901286 1.03515625 51.3671875 C-9.91137518 61.93511709 -16.52612878 73.14367079 -16.8125 88.5625 C-16.8268064 102.49216393 -11.09738705 112.80162466 -2.6875 123.625 C1.59355817 129.57326894 1.99669091 136.43622356 1.03125 143.5234375 C-1.65135735 156.02912175 -11.51748954 164.17219537 -20.12866211 172.96435547 C-21.07917774 173.93756317 -22.02960445 174.91085773 -22.97994995 175.88423157 C-31.60970102 184.71492814 -40.28385907 193.50213718 -48.96991634 202.27741814 C-54.79370804 208.16238596 -60.60344205 214.05996291 -66.38012695 219.99121094 C-71.44187015 225.18837396 -76.52809506 230.36005287 -81.64501387 235.50292313 C-84.34438561 238.21758718 -87.030624 240.9427099 -89.68787956 243.69866562 C-108.82858051 263.52046885 -108.82858051 263.52046885 -118.51782227 264.30908203 C-120.84728019 264.27751266 -123.17732117 264.18037159 -125.5 264 C-127.73201724 264.17517371 -129.96217652 264.3789874 -132.1875 264.625 C-150.9071562 265.7910035 -170.01149792 265.38092872 -188.5 262 C-187.09872413 258.82765802 -185.45014939 256.70921344 -182.99028015 254.27668762 C-182.26272522 253.552164 -181.53517029 252.82764038 -180.78556824 252.0811615 C-179.58786552 250.90367088 -179.58786552 250.90367088 -178.3659668 249.70239258 C-177.52514557 248.86770447 -176.68432434 248.03301636 -175.81802368 247.17303467 C-173.5132923 244.88635338 -171.20431221 242.604056 -168.89403892 240.3229773 C-166.47194674 237.92833464 -164.05713147 235.52638325 -161.64204407 233.12467957 C-153.41798572 224.94885092 -145.18233411 216.78476087 -136.93774414 208.62963867 C-132.38271055 204.12388068 -127.83503483 199.6108225 -123.2949689 195.08998221 C-120.89544751 192.70134882 -118.49221105 190.31673672 -116.07956505 187.94135475 C-113.38452492 185.28490985 -110.7021826 182.61622013 -108.0222168 179.94458008 C-107.22982101 179.16970749 -106.43742523 178.3948349 -105.62101746 177.59648132 C-97.00864894 168.95359171 -91.52605352 158.88034791 -91.125 146.5 C-91.53962318 134.21678839 -97.16765659 123.32706 -106.015625 114.890625 C-116.91223082 106.59823944 -128.03214638 104.05791369 -141.5 105 C-155.0892327 107.75563815 -163.39206966 116.60719627 -172.79370117 126.16186523 C-173.909423 127.28799094 -175.02564281 128.41362346 -176.14231873 129.5388031 C-178.53270568 131.9489637 -180.92011118 134.36202474 -183.30534935 136.77728081 C-187.07643063 140.59470386 -190.85745189 144.40217666 -194.64045715 148.20777893 C-205.39166389 159.02568962 -216.13423814 169.85207367 -226.85620117 180.69897461 C-232.78810376 186.6998311 -238.73059074 192.68998927 -244.68516332 198.66835362 C-248.45083971 202.45024677 -252.2029845 206.24492415 -255.94581831 210.04941833 C-258.27135643 212.40688997 -260.60929959 214.75173967 -262.95104408 217.09310341 C-264.03628239 218.18319839 -265.11634354 219.27847504 -266.19084167 220.37915802 C-267.65533831 221.87784842 -269.13707204 223.35704879 -270.62467957 224.83274841 C-271.45035525 225.6665525 -272.27603094 226.50035658 -273.1267271 227.35942745 C-275.5 229 -275.5 229 -278.09767628 228.88130283 C-281.5655101 227.60911302 -284.4804847 225.64644583 -287.5 223.5625 C-288.15718018 223.11511475 -288.81436035 222.66772949 -289.49145508 222.20678711 C-298.51029242 216.0064043 -307.1246172 209.3910601 -315.3125 202.125 C-315.83481201 201.67261963 -316.35712402 201.22023926 -316.89526367 200.75415039 C-318.33203125 199.4453125 -318.33203125 199.4453125 -320.5 197 C-320.5 192.49997404 -320.5 192.49997404 -317.77368927 189.77032471 C-317.16554524 189.15174969 -316.55740121 188.53317467 -315.93082857 187.89585495 C-314.91180366 186.89021437 -314.91180366 186.89021437 -313.87219238 185.86425781 C-313.15913169 185.14495716 -312.446071 184.42565651 -311.71140242 183.68455887 C-309.30730749 181.26444447 -306.88908739 178.85895426 -304.47070312 176.453125 C-302.74888227 174.72588686 -301.02791414 172.9977983 -299.30773926 171.2689209 C-295.10973638 167.05453165 -290.90241141 162.84966196 -286.69042832 158.64926052 C-283.26590841 155.23376787 -279.84530506 151.81439864 -276.42747498 148.39221191 C-275.69824428 147.66206182 -275.69824428 147.66206182 -274.95428166 146.91716123 C-273.96668656 145.92828723 -272.97910044 144.93940425 -271.99152321 143.95051241 C-262.72240995 134.66998346 -253.44106004 125.40177012 -244.15550512 116.13769579 C-236.19372243 108.19376247 -228.24245422 100.23943152 -220.29882812 92.27734375 C-211.07450054 83.03158807 -201.84368941 73.79238537 -192.60250807 64.56347275 C-191.61601406 63.57825291 -190.62952838 62.59302472 -189.64305115 61.60778809 C-189.15769344 61.12304748 -188.67233573 60.63830687 -188.17227021 60.13887715 C-184.75792352 56.72797923 -181.34823051 53.31247174 -177.94032288 49.8951416 C-173.34682771 45.28922574 -168.7427638 40.69406451 -164.1315155 36.10591125 C-162.44143377 34.42111369 -160.75473773 32.73291187 -159.07171631 31.0410614 C-156.77150701 28.72990191 -154.4592965 26.4314466 -152.14367676 24.13574219 C-151.48217259 23.46531513 -150.82066842 22.79488808 -150.13911867 22.10414505 C-142.52826541 14.61950477 -135.09547517 11.66752749 -124.3996582 11.61499023 C-114.74468563 11.82872362 -108.55762394 16.90667419 -101.01953125 22.35546875 C-90.45541692 29.25080539 -77.4857948 30.78639753 -65.23828125 28.3515625 C-52.70885894 24.51903332 -44.13398874 17.1659825 -35.42089844 7.68652344 C-26.06129792 -2.22280551 -12.95168889 -5.83320339 0 0 Z " fill="#000000" transform="translate(405.5,240)"/>
<path d="M0 0 C-0.41755588 11.27400885 -6.63338739 17.83716164 -14.4375 25.3125 C-23.00645415 33.55479984 -29.81914826 42.76208194 -31 55 C-31.12181641 56.25683594 -31.12181641 56.25683594 -31.24609375 57.5390625 C-31.77660155 68.69580223 -28.21311724 79.46475686 -21 88 C-12.49695799 97.23187418 -1.41286203 101.38977537 11 102 C28.81464507 101.29738677 40.24883835 90.16812578 51.8125 78 C57.72067811 71.9742462 64.87154115 69.8764346 73.125 69.6875 C83.46702132 69.82570073 89.9165638 73.80694527 98.10888672 79.70288086 C107.24854753 86.15385286 117.35617926 88.96724719 128.48828125 87.55859375 C143.06005687 84.81953818 151.77887944 77.4716086 161.828125 67.046875 C162.49634277 66.35964355 163.16456055 65.67241211 163.85302734 64.96435547 C165.18844554 63.58443408 166.51202309 62.19294293 167.82275391 60.78955078 C168.43554199 60.1551709 169.04833008 59.52079102 169.6796875 58.8671875 C170.22351074 58.29081543 170.76733398 57.71444336 171.32763672 57.12060547 C173 56 173 56 175.03393555 56.17919922 C178.2154382 57.50742621 180.48225902 59.89699921 182.9375 62.25 C183.50307617 62.78359131 184.06865234 63.31718262 184.65136719 63.86694336 C186.44421904 65.56787315 188.22363959 67.28186501 190 69 C190.57057129 69.54865723 191.14114258 70.09731445 191.72900391 70.66259766 C203.03625173 81.57937937 212.68954633 93.485957 221.77978516 106.29541016 C222.9511605 107.93177323 224.16813155 109.53520398 225.38671875 111.13671875 C227 114 227 114 227.1328125 116.4609375 C225.44166066 120.25145024 222.83229092 122.7592207 219.875 125.625 C219.24972412 126.23746582 218.62444824 126.84993164 217.98022461 127.48095703 C191.28564381 153.05536926 157.39347867 163.48113523 120.9375 163.375 C120.15865448 163.3737915 119.37980896 163.37258301 118.57736206 163.37133789 C85.90201926 163.23538233 54.59985364 155.54826831 22.95703125 148.2109375 C-8.85281933 140.76280428 -8.85281933 140.76280428 -41 135 C-41.79728516 134.87302734 -42.59457031 134.74605469 -43.41601562 134.61523438 C-79.23271743 129.06442085 -118.64699991 131.88260427 -151 149 C-151.97163086 149.50055908 -151.97163086 149.50055908 -152.96289062 150.01123047 C-168.13664033 157.87299209 -180.67424161 168.2646971 -193 180 C-193.65484375 180.61359375 -194.3096875 181.2271875 -194.984375 181.859375 C-208.3061104 194.69223938 -219.27082034 210.89782453 -228.609375 226.7890625 C-229.29773438 227.88347656 -229.29773438 227.88347656 -230 229 C-230.33 229 -230.66 229 -231 229 C-230.44063262 194.87858958 -218.86509526 160.90347511 -203 131 C-202.62649414 130.28102539 -202.25298828 129.56205078 -201.86816406 128.82128906 C-195.89657272 117.36040809 -189.02308248 107.1176935 -181 97 C-180.26652344 96.05382812 -179.53304687 95.10765625 -178.77734375 94.1328125 C-166.04094519 77.87681274 -151.36603637 62.45255414 -134.6796875 50.23095703 C-133.0029241 49.00214293 -131.34512847 47.75055492 -129.6875 46.49609375 C-93.89281636 19.78052811 -45.21973105 -0.54601212 0 0 Z " fill="#000000" transform="translate(239,8)"/>
<path d="M0 0 C50.30635994 -1.73803163 108.98236766 14.43410214 148 47 C145.6778422 52.30768291 141.47536967 55.89313335 137.4375 59.9375 C136.66341797 60.73607422 135.88933594 61.53464844 135.09179688 62.35742188 C127.52964437 69.95735366 120.29585154 75.03875834 109.375 75.3125 C99.09886677 75.17548489 92.66920268 70.94762418 84.65234375 64.8984375 C75.01497503 58.00040923 63.92682389 56.22606761 52.28125 57.390625 C37.32618668 60.1679939 26.54454883 70.03905471 16.5 80.8125 C10.46791548 86.85514859 4.43108338 89.14430425 -4.0625 89.5 C-12.73481481 89.1557724 -19.00585422 85.79927651 -25.2734375 79.90625 C-30.79087639 73.81459801 -32.08093371 67.08180883 -32 59 C-31.18549127 48.41138651 -24.85898971 41.69615542 -17.5625 34.625 C-7.28659655 24.64215493 -1.5563908 14.31879532 0 0 Z " fill="#000000" transform="translate(253,7)"/>
<path d="M0 0 C5.64776666 5.57331399 9.53018841 10.02731887 10.30078125 18.18359375 C10.35812839 34.10698378 1.6839822 41.43314552 -8.92944336 52.18579102 C-10.22843315 53.5066848 -10.22843315 53.5066848 -11.55366516 54.85426331 C-19.46908656 62.89475314 -27.41185316 70.90838447 -35.36405087 78.9124918 C-41.23194468 84.8194155 -47.08452782 90.74070391 -52.9183225 96.68131119 C-57.03621588 100.87202567 -61.17116117 105.04542848 -65.31901842 109.20648521 C-67.79111239 111.68743511 -70.25495063 114.1754598 -72.70048332 116.68261909 C-75.42283927 119.47281864 -78.18001954 122.22691025 -80.94116211 124.97875977 C-81.74296906 125.81135315 -82.544776 126.64394653 -83.37088013 127.50177002 C-88.80885176 132.84063632 -88.80885176 132.84063632 -92.22105885 133.29715538 C-94.35614014 133.05686951 -94.35614014 133.05686951 -98 132 C-99.10899658 131.70673828 -100.21799316 131.41347656 -101.3605957 131.11132812 C-105.01577197 129.92048198 -108.66955535 128.7277165 -112.3125 127.5 C-112.97219788 127.28023499 -113.63189575 127.06046997 -114.31158447 126.83404541 C-125.62898685 123.04831032 -136.41348673 118.51992002 -147 113 C-147 108.94973755 -145.6312375 108.25198754 -142.80187988 105.41419983 C-142.35016654 104.95710095 -141.89845321 104.50000208 -141.43305159 104.02905172 C-139.91103662 102.49268071 -138.37845811 100.96730142 -136.84570312 99.44165039 C-135.7546309 98.34487828 -134.6641916 97.24747621 -133.57434082 96.14949036 C-130.60582626 93.16297869 -127.62776287 90.18616271 -124.64739418 87.2114861 C-122.15976561 84.7269426 -119.67673315 82.23783146 -117.1936717 79.74872488 C-111.33191683 73.87290238 -105.4623646 68.00494998 -99.58789062 62.1418457 C-93.53346253 56.09887719 -87.49188169 50.04328368 -81.45661974 43.98117834 C-76.2731447 38.77551579 -71.08191033 33.57768215 -65.88439894 28.38603395 C-62.78110853 25.28610989 -59.68076714 22.18337898 -56.58778381 19.0731678 C-53.6747145 16.14458504 -50.75202762 13.22594711 -47.82182312 10.31451225 C-46.75096061 9.24732467 -45.683456 8.17675472 -44.61968994 7.10249329 C-31.7330884 -5.90144069 -16.04899397 -12.97578236 0 0 Z " fill="#000000" transform="translate(290,365)"/>
<path d="M0 0 C5.8661747 5.8661747 8.18922826 11.76420335 8.5 19.9375 C8.3654528 27.16716952 6.43606435 32.3003658 1.875 37.875 C-5.74014003 44.10556911 -11.96172109 46.98425692 -21.875 46.125 C-28.37276166 44.8449735 -33.57810005 42.22356039 -37.875 37.125 C-42.53027818 29.92499722 -44.75842751 23.19228246 -43.25 14.625 C-41.26464114 7.03622699 -37.35398075 1.7448877 -30.91015625 -2.6875 C-20.54497788 -8.73551194 -9.55241207 -6.22983396 0 0 Z " fill="#000000" transform="translate(120.875,251.875)"/>
</svg>
